<svg xmlns="http://www.w3.org/2000/svg" width="154" height="35" fill="none" viewBox="0 0 154 35">
    <g clip-path="url(#a)">
        <path fill="#33ADFF" d="M109.709 6.602l-6.283.004L114.59 17.6l-11.165 10.997 6.294-.003c.629 0 1.251-.122 1.832-.358a4.778 4.778 0 0 0 1.55-1.02l9.548-9.403a.299.299 0 0 0 0-.428l-9.552-9.405a4.784 4.784 0 0 0-1.553-1.02 4.864 4.864 0 0 0-1.835-.357z"/>
        <path fill="#fff" d="M124.759 20.023l-12.987 12.79 6.953-.003c.629 0 1.251-.122 1.832-.358a4.779 4.779 0 0 0 1.55-1.02l7.187-7.078a.295.295 0 0 0 .09-.216.308.308 0 0 0-.094-.215l-4.095-3.904a.314.314 0 0 0-.436.004zM118.632 2.296l-6.941.005 13.057 12.856a.31.31 0 0 0 .221.09.314.314 0 0 0 .22-.09l4.029-3.968a.299.299 0 0 0 0-.428l-7.198-7.087a4.784 4.784 0 0 0-1.553-1.02 4.86 4.86 0 0 0-1.835-.358zM136.245 17.519l.017-.017-.017-.016L153.997.003 147.055 0c-.629 0-1.252.121-1.834.358a4.782 4.782 0 0 0-1.552 1.02l-16.23 15.982a.3.3 0 0 0 .001.429l16.227 15.846a4.825 4.825 0 0 0 3.369 1.363L154 35 136.245 17.52zM4.332 13.195h2.726l2.276 8.51h.045l2.187-8.51h2.592l2.095 8.51h.045l2.366-8.51h2.613l-3.65 11.398H14.99l-2.163-8.466h-.046l-2.14 8.466H7.937L4.332 13.195zM24.675 19.544c-.001.434.063.865.192 1.28.117.392.313.76.574 1.08.263.314.594.566.97.738.438.193.916.288 1.397.276.751 0 1.356-.158 1.814-.474a2.806 2.806 0 0 0 1.025-1.422h2.434a4.72 4.72 0 0 1-1.894 2.876 5.206 5.206 0 0 1-1.566.75c-.588.17-1.2.255-1.813.253a6.288 6.288 0 0 1-2.433-.44 5.026 5.026 0 0 1-1.792-1.235 5.209 5.209 0 0 1-1.104-1.896 7.552 7.552 0 0 1-.372-2.425 6.722 6.722 0 0 1 .394-2.304 5.86 5.86 0 0 1 1.127-1.918 5.279 5.279 0 0 1 1.85-1.348 5.388 5.388 0 0 1 2.262-.449 5.316 5.316 0 0 1 4.281 2.05c.49.635.846 1.358 1.048 2.128.218.809.275 1.65.169 2.48h-8.563zm5.994-1.653a3.988 3.988 0 0 0-.26-1.146 3.048 3.048 0 0 0-.585-.96c-.254-.275-.56-.5-.901-.66a2.71 2.71 0 0 0-1.183-.254 3.148 3.148 0 0 0-1.228.231 2.81 2.81 0 0 0-.947.64c-.268.28-.482.604-.63.959a3.28 3.28 0 0 0-.26 1.19h5.994zM37.533 19.544c-.001.434.063.865.191 1.28.118.392.313.76.575 1.08.262.314.594.566.97.738.438.194.916.288 1.397.276.75 0 1.355-.158 1.814-.474a2.805 2.805 0 0 0 1.025-1.422h2.433a4.715 4.715 0 0 1-1.893 2.876 5.207 5.207 0 0 1-1.566.75c-.589.17-1.2.255-1.814.253a6.289 6.289 0 0 1-2.433-.441 5.024 5.024 0 0 1-1.792-1.235 5.204 5.204 0 0 1-1.104-1.895 7.551 7.551 0 0 1-.372-2.426 6.724 6.724 0 0 1 .395-2.303 5.863 5.863 0 0 1 1.126-1.918 5.28 5.28 0 0 1 1.851-1.348 5.388 5.388 0 0 1 2.262-.449 5.317 5.317 0 0 1 4.281 2.05c.49.635.845 1.358 1.048 2.128.218.808.275 1.65.169 2.48h-8.563zm5.994-1.653a3.98 3.98 0 0 0-.26-1.146 3.047 3.047 0 0 0-.585-.96c-.254-.275-.56-.5-.902-.66a2.71 2.71 0 0 0-1.183-.254 3.148 3.148 0 0 0-1.228.231 2.81 2.81 0 0 0-.946.64 3.16 3.16 0 0 0-.631.959c-.16.377-.248.78-.26 1.19h5.995zM57.277 22.168h-.045a5.181 5.181 0 0 1-1.803 2.017 5.489 5.489 0 0 1-4.89.187 4.42 4.42 0 0 1-1.555-1.3 5.575 5.575 0 0 1-.9-1.885 8.796 8.796 0 0 1 .022-4.586 5.288 5.288 0 0 1 .957-1.884 4.58 4.58 0 0 1 1.611-1.257 5.226 5.226 0 0 1 2.276-.463c.465 0 .928.063 1.376.187.44.121.862.303 1.25.54a3.895 3.895 0 0 1 1.657 2.073h.045V8.852h.856v15.74h-.856l-.001-2.424zm-4.304 1.962a3.886 3.886 0 0 0 1.904-.441c.526-.288.98-.687 1.33-1.169.362-.504.629-1.068.788-1.664a7.21 7.21 0 0 0 0-3.836 5.398 5.398 0 0 0-.777-1.675 3.817 3.817 0 0 0-1.34-1.18 4.022 4.022 0 0 0-1.927-.44 4.14 4.14 0 0 0-1.96.43c-.532.279-.991.675-1.34 1.157a4.78 4.78 0 0 0-.767 1.675 8.074 8.074 0 0 0-.236 1.962c-.002.651.086 1.3.26 1.93.158.596.425 1.16.788 1.664.349.482.808.878 1.34 1.157.598.3 1.264.448 1.937.43zM61.053 11.123v-2.27h.857v2.27h-.856zm0 13.47V13.26h.857v11.332h-.856zM74.287 13.262v10.736a7.514 7.514 0 0 1-.225 1.84 4.055 4.055 0 0 1-.775 1.576 3.798 3.798 0 0 1-1.518 1.092c-.644.272-1.461.408-2.45.408a7.665 7.665 0 0 1-1.731-.188 4.22 4.22 0 0 1-1.416-.595 3.052 3.052 0 0 1-.979-1.08 3.773 3.773 0 0 1-.415-1.665h.856c.03.45.16.886.383 1.28.205.346.486.643.822.87a3.52 3.52 0 0 0 1.138.496c.443.105.897.157 1.352.154.683.021 1.363-.1 1.995-.352.49-.205.926-.518 1.273-.915a3.28 3.28 0 0 0 .665-1.279c.126-.47.19-.956.191-1.443v-2.602h-.066a4.534 4.534 0 0 1-1.652 1.918 4.638 4.638 0 0 1-2.528.66 5.258 5.258 0 0 1-2.215-.429 4.266 4.266 0 0 1-1.552-1.19 5.087 5.087 0 0 1-.921-1.775 7.652 7.652 0 0 1-.304-2.204 6.927 6.927 0 0 1 .327-2.139 5.283 5.283 0 0 1 .958-1.775 4.61 4.61 0 0 1 1.566-1.212 5.176 5.176 0 0 1 4.687.231 3.816 3.816 0 0 1 1.656 1.94h.045v-2.358h.833zm-5.07.462a3.819 3.819 0 0 0-1.836.42c-.507.269-.946.645-1.284 1.102-.346.47-.605.996-.767 1.554a6.19 6.19 0 0 0-.259 1.775 6.723 6.723 0 0 0 .26 1.884c.156.564.423 1.092.788 1.555.35.44.797.797 1.307 1.047a3.977 3.977 0 0 0 1.791.385 4.064 4.064 0 0 0 1.848-.396 3.813 3.813 0 0 0 1.318-1.08 4.7 4.7 0 0 0 .789-1.555c.345-1.2.345-2.47 0-3.67a4.57 4.57 0 0 0-.789-1.555 3.87 3.87 0 0 0-1.318-1.069 4.061 4.061 0 0 0-1.848-.397zM77.12 11.123v-2.27h.856v2.27h-.856zm0 13.47V13.26h.856v11.332h-.856zM85.16 13.989h-2.525v7.914c-.014.366.04.732.158 1.08.091.248.261.46.485.607.237.146.508.233.788.253.356.03.714.038 1.07.022v.728a8.21 8.21 0 0 1-1.272-.012 2.593 2.593 0 0 1-1.094-.33 1.952 1.952 0 0 1-.754-.827c-.188-.367-.267-.874-.237-1.521v-7.914h-2.14v-.728h2.14V9.734h.856v3.527h2.524v.728zM94.594 22.344h-.045c-.142.348-.34.672-.586.96a4.114 4.114 0 0 1-.935.804c-.386.243-.808.43-1.25.552a5.588 5.588 0 0 1-1.532.198c-1.232 0-2.186-.26-2.862-.782-.677-.522-1.014-1.327-1.014-2.415a2.78 2.78 0 0 1 .338-1.504 2.86 2.86 0 0 1 1.093-1.108c.425-.247.89-.422 1.375-.518.48-.1.965-.173 1.453-.22l1.33-.11c.49-.026.976-.096 1.453-.21.296-.066.57-.202.8-.397.183-.174.302-.402.338-.65.05-.328.072-.66.067-.992a2.056 2.056 0 0 0-.18-.86 1.941 1.941 0 0 0-.563-.705 2.818 2.818 0 0 0-.992-.485 5.414 5.414 0 0 0-1.487-.177c-1.036 0-1.874.25-2.512.75-.639.5-.988 1.257-1.048 2.27h-.856c.06-1.249.469-2.186 1.228-2.81.758-.626 1.836-.939 3.233-.938 1.397 0 2.415.268 3.053.805.312.257.56.58.726.945.166.364.245.761.232 1.16V22.5c0 .162.004.323.012.485.005.15.031.298.079.44.04.127.118.238.225.32a.728.728 0 0 0 .45.121c.212-.006.423-.028.631-.066v.705c-.228.06-.463.09-.698.089-.28.01-.56-.034-.823-.133a1.078 1.078 0 0 1-.462-.352 1.286 1.286 0 0 1-.214-.518 3.477 3.477 0 0 1-.056-.65l-.001-.596zm0-4.188c-.25.271-.589.45-.958.507-.472.094-.95.16-1.43.198l-1.443.132c-.42.045-.841.107-1.262.188-.4.073-.784.211-1.138.407-.336.19-.62.46-.822.783-.227.393-.336.84-.316 1.29 0 .837.27 1.458.811 1.863.54.404 1.284.606 2.231.606.976 0 1.75-.172 2.32-.517.52-.298.967-.705 1.308-1.19.276-.393.471-.835.575-1.301.063-.28.104-.563.123-.849v-2.117zM99.382 8.852v15.74h-.856V8.853h.856zM2.001 24.649c-.396 0-.783-.115-1.112-.33a1.967 1.967 0 0 1-.737-.879 1.918 1.918 0 0 1-.114-1.13c.078-.38.268-.73.548-1.003.28-.274.637-.46 1.025-.536.388-.076.79-.037 1.156.111.366.149.678.4.898.721.22.322.337.701.337 1.088 0 .52-.211 1.017-.586 1.384A2.026 2.026 0 0 1 2 24.649zm0-3.518a1.62 1.62 0 0 0-.886.263 1.568 1.568 0 0 0-.588.7 1.529 1.529 0 0 0 .346 1.7c.223.219.507.368.817.428.31.06.63.03.921-.089.292-.118.541-.318.716-.575a1.536 1.536 0 0 0-.199-1.97 1.615 1.615 0 0 0-1.127-.457z"/>
        <path fill="#fff" d="M1.891 22.532a.372.372 0 0 0 .242-.063.31.31 0 0 0 0-.404.386.386 0 0 0-.242-.06h-.227v.527h.227zm-.227.364v.775h-.54v-2.05h.824c.212-.015.423.033.606.138a.488.488 0 0 1 .193.43.532.532 0 0 1-.1.333.578.578 0 0 1-.303.191.418.418 0 0 1 .2.113.975.975 0 0 1 .176.265l.295.58H2.44l-.256-.509a.55.55 0 0 0-.157-.208.358.358 0 0 0-.211-.058h-.153"/>
    </g>
    <defs>
        <clipPath id="a">
            <path fill="#fff" d="M0 0h154v35H0z"/>
        </clipPath>
    </defs>
</svg>
