<svg xmlns="http://www.w3.org/2000/svg" width="174" height="70" fill="none" viewBox="0 0 174 70">
    <path fill="#F8F8F8" fill-rule="evenodd" d="M123.826 13.493L134.074 3.23A11.01 11.01 0 0 1 141.9 0l31.282.1c.394 0 .713.32.714.713L174 32.086a11.01 11.01 0 0 1-3.222 7.82L160.51 50.182l-.123-36.573-36.561-.117zM9.671 27.123H0l12.788 41.32h9.591l7.593-30.69h.16l7.673 30.69h9.35l12.949-41.32h-9.272L42.44 57.974h-.16l-7.433-30.851h-9.191l-7.753 30.851h-.16L9.671 27.123zm83.744 17.024a14.705 14.705 0 0 0-.919-4.156c-.507-1.331-1.198-2.49-2.078-3.477a10.326 10.326 0 0 0-3.197-2.398c-1.252-.611-2.651-.919-4.196-.919-1.598 0-3.05.28-4.356.84a9.953 9.953 0 0 0-3.356 2.317c-.934.987-1.679 2.146-2.238 3.477-.56 1.332-.867 2.77-.92 4.316h21.26zm-21.259 5.995c0 1.598.226 3.143.68 4.635.451 1.492 1.13 2.797 2.037 3.916.906 1.12 2.051 2.012 3.437 2.678 1.385.666 3.037.999 4.955.999 2.665 0 4.809-.573 6.435-1.718 1.624-1.146 2.837-2.864 3.636-5.156h8.632c-.48 2.238-1.306 4.237-2.478 5.995a17.256 17.256 0 0 1-4.236 4.436c-1.652 1.199-3.504 2.105-5.554 2.717a22.404 22.404 0 0 1-6.435.919c-3.25 0-6.127-.533-8.631-1.598-2.506-1.066-4.623-2.558-6.354-4.476-1.732-1.918-3.037-4.209-3.917-6.873-.879-2.665-1.318-5.595-1.318-8.793 0-2.929.465-5.715 1.398-8.352.932-2.637 2.265-4.955 3.997-6.952 1.73-2 3.822-3.584 6.274-4.756 2.45-1.172 5.221-1.759 8.312-1.759 3.25 0 6.167.679 8.751 2.038 2.584 1.359 4.728 3.157 6.435 5.395 1.704 2.238 2.943 4.81 3.716 7.713.771 2.906.972 5.901.599 8.992H72.156zm65.951-10.151c.506 1.332.812 2.717.92 4.156h-21.26c.052-1.545.359-2.984.919-4.316a11.488 11.488 0 0 1 2.237-3.477 9.955 9.955 0 0 1 3.358-2.318c1.304-.56 2.757-.839 4.355-.839 1.545 0 2.943.308 4.196.92a10.31 10.31 0 0 1 3.197 2.397c.88.986 1.571 2.146 2.078 3.477zm-19.66 14.786a15.867 15.867 0 0 1-.679-4.635h30.371c.372-3.09.172-6.086-.6-8.992-.772-2.904-2.011-5.475-3.716-7.713-1.706-2.238-3.85-4.036-6.434-5.395-2.585-1.359-5.502-2.038-8.752-2.038-3.09 0-5.862.587-8.311 1.759-2.452 1.172-4.544 2.757-6.275 4.756-1.732 1.997-3.065 4.315-3.996 6.952-.933 2.638-1.399 5.423-1.399 8.352 0 3.198.44 6.128 1.319 8.793.879 2.664 2.184 4.955 3.916 6.873 1.731 1.918 3.849 3.41 6.354 4.476 2.504 1.065 5.382 1.598 8.632 1.598 2.238 0 4.382-.307 6.434-.919 2.051-.612 3.903-1.518 5.555-2.717a17.272 17.272 0 0 0 4.236-4.436c1.171-1.758 1.998-3.757 2.477-5.995h-8.631c-.8 2.292-2.013 4.01-3.637 5.155-1.626 1.146-3.77 1.719-6.434 1.719-1.918 0-3.57-.332-4.955-1-1.386-.665-2.531-1.557-3.437-2.677-.907-1.119-1.586-2.424-2.038-3.916z" clip-rule="evenodd"/>
</svg>
